PathFileType	4	(X/Y/Z)	/Users/niels/Desktop/University/Third Semester/Perception and Action/Exam/Gymnastics Motion Tracking/Code for Gym Tracking/Analyzed Data/Webcam_Backflip/id2_3_trajectory_Sports2D/id2_3_trajectory_Sports2D_px_person00.trc
DataRate	CameraRate	NumFrames	NumMarkers	Units	OrigDataRate	OrigDataStartFrame	OrigNumFrames
29.71698113207547	29.71698113207547	11	22	m	29.71698113207547	53	106
Frame#	Time	Hip			RHip			RKnee			RAnkle			RBigToe			RSmallToe			RHeel			LHip			LKnee			LAnkle			LBigToe			LSmallToe			LHeel			Neck			Head			Nose			RShoulder			RElbow			RWrist			LShoulder			LElbow			LWrist		
		X1	Y1	Z1	X2	Y2	Z2	X3	Y3	Z3	X4	Y4	Z4	X5	Y5	Z5	X6	Y6	Z6	X7	Y7	Z7	X8	Y8	Z8	X9	Y9	Z9	X10	Y10	Z10	X11	Y11	Z11	X12	Y12	Z12	X13	Y13	Z13	X14	Y14	Z14	X15	Y15	Z15	X16	Y16	Z16	X17	Y17	Z17	X18	Y18	Z18	X19	Y19	Z19	X20	Y20	Z20	X21	Y21	Z21	X22	Y22	Z22
53	1.7834920634920632	0.7799106468646776	-0.7270548097257937	0.0	0.7718331191050891	-0.7284057877381463	0.0	0.7752960790534622	-0.8429828801981819	0.0	0.7184558546586705	-0.9446171110396185	0.0	0.749973276739895	-0.9787756344879814	0.0	0.7293960702487363	-0.9738409203309023	0.0	0.7028243027766774	-0.9496947279566655	0.0	0.7914645814074711	-0.7305395542461942	0.0	0.7976109125966895	-0.8224393880753609	0.0	0.7490874642577262	-0.9102245826670354	0.0	0.83178884068394	-0.8825138587217337	0.0	0.8395790281776799	-0.8148926872807246	0.0	0.7435406353373955	-0.8898438490654885	0.0	0.8739606712335818	-0.5861071864075275	0.0	0.9361654405217279	-0.5338845859995549	0.0	0.9177108510482371	-0.5779657730874306	0.0	0.8473482438811363	-0.5914114115122383	0.0	0.8258393893466367	-0.657792939053265	0.0	0.8944117938751797	-0.6831221548142095	0.0	0.8836347414770259	-0.5962268720094196	0.0	0.9208060029975906	-0.6355310686715056	0.0	0.9664560661329031	-0.6173417797106312	0.0
54	1.817142857142857	0.7943975696187574	-0.7132363123708716	0.0	0.7862288822472567	-0.7133810057649681	0.0	0.7924018601429712	-0.8225638472877572	0.0	0.724305437179014	-0.9138385923137666	0.0	0.7465006414271634	-0.9551135540015685	0.0	0.7285352899630035	-0.9464645097266833	0.0	0.7075714045656764	-0.9164258894213038	0.0	0.8069069151669208	-0.7170806512043754	0.0	0.8062534775212955	-0.8140059488324173	0.0	0.7355357967093908	-0.9029770486050046	0.0	0.7932010944005837	-0.9035247046517596	0.0	0.7978426879670042	-0.8475273725358565	0.0	0.7226940779073123	-0.8896868232293063	0.0	0.8804049562805777	-0.5626474292162842	0.0	0.9398953182911519	-0.5089694871449945	0.0	0.9233546977854652	-0.5534254790433818	0.0	0.85274993582302	-0.5693444409900074	0.0	0.8221297364677571	-0.6375467601299599	0.0	0.8756689073182498	-0.6751793472396028	0.0	0.8869981827695546	-0.5757074160028998	0.0	0.91180219607451	-0.6215347756471808	0.0	0.9560800941192781	-0.6152776533521115	0.0
55	1.8507936507936507	0.8121401204018308	-0.6875562853712994	0.0	0.8043924890820594	-0.6871609150841846	0.0	0.8146640575851998	-0.7924677891865357	0.0	0.7344831345765375	-0.872307307820151	0.0	0.7458472660917224	-0.9193821046744575	0.0	0.7312289247288779	-0.9091136781305058	0.0	0.716563394021817	-0.8725907207248291	0.0	0.825017149626493	-0.6909217509945939	0.0	0.8206693243714958	-0.7909220745425861	0.0	0.7344408036520099	-0.8752671588244201	0.0	0.7663272547821726	-0.9001509525683893	0.0	0.7686817460706801	-0.8608854238879817	0.0	0.7167271308247757	-0.8681832874762635	0.0	0.890577379231555	-0.5302396605276264	0.0	0.949057971453516	-0.4763202186353546	0.0	0.9333301698378387	-0.5208467813734264	0.0	0.8622208815529206	-0.5387162836609339	0.0	0.8224198581952916	-0.6077765461577018	0.0	0.8565976651848916	-0.6588199551558891	0.0	0.8936461972020308	-0.5447796981560374	0.0	0.9037193826867909	-0.6002111580458217	0.0	0.9459086095368459	-0.6116280978186166	0.0
56	1.8844444444444441	0.831876725735831	-0.6543147190375513	0.0	0.8248660194873738	-0.6536934531213977	0.0	0.8405167833750921	-0.7571199960462719	0.0	0.7488166779629167	-0.8263020059668108	0.0	0.7503373988751874	-0.8773196558371485	0.0	0.7386756118260545	-0.8671805756168438	0.0	0.7297353275117737	-0.8246323436669737	0.0	0.8445792569423257	-0.6567786584777173	0.0	0.8397221077792585	-0.7587713155769991	0.0	0.7435319882962721	-0.836190826426211	0.0	0.7545564927623307	-0.8781406123456812	0.0	0.7561337289570371	-0.8544919558866534	0.0	0.7233641792410023	-0.8331473743751983	0.0	0.9032410838935502	-0.4923581121133521	0.0	0.9617971317407841	-0.43845306405931433	0.0	0.9463570229931018	-0.48304498489623315	0.0	0.874550487608248	-0.5023833184336467	0.0	0.8269152376501481	-0.5709460528823234	0.0	0.8407545118768942	-0.632989340146453	0.0	0.903261944507949	-0.5072948088152265	0.0	0.8987952225399903	-0.572353246448019	0.0	0.9369200812987971	-0.602368643531749	0.0
57	1.9180952380952379	0.8525478464884463	-0.6176590902053074	0.0	0.8461193732457879	-0.6168765381029232	0.0	0.867985970608901	-0.720362969338082	0.0	0.7667672311303613	-0.7817670166993281	0.0	0.7616488499804162	-0.8352068277890691	0.0	0.7519523349390707	-0.8259806338424914	0.0	0.7467580595723913	-0.7787982174504403	0.0	0.8648190942525282	-0.6191624450725787	0.0	0.8622697853652846	-0.7228646769684315	0.0	0.7602565107993957	-0.7941893966813336	0.0	0.7582986185632105	-0.8459379107925685	0.0	0.7600270507476482	-0.8334207671284743	0.0	0.7394939270403204	-0.792993068348766	0.0	0.9175009238973129	-0.4525625051848962	0.0	0.9765499494957459	-0.3982970735137795	0.0	0.9614286911528577	-0.44315833994414605	0.0	0.8886481318994107	-0.46350203286361963	0.0	0.834983658380696	-0.530400834183923	0.0	0.8305019791442853	-0.5995475514493226	0.0	0.9155042626236858	-0.4673602927382216	0.0	0.8986090768747312	-0.5397578432947004	0.0	0.9305670196791093	-0.5855276897157952	0.0
58	1.9517460317460316	0.8734200668671732	-0.5809847015393533	0.0	0.8670236723579897	-0.5799546188342044	0.0	0.8953438217158775	-0.6849207411147761	0.0	0.7878548500382206	-0.7431517004905712	0.0	0.7807590852852425	-0.7979303386704054	0.0	0.7718264661775607	-0.7898174275240114	0.0	0.767340214006468	-0.7397597784124017	0.0	0.8853846438367556	-0.5816248427683756	0.0	0.8872228545274516	-0.6871731970100033	0.0	0.7826462931751444	-0.7554969573683268	0.0	0.7761522395340014	-0.8113529089675928	0.0	0.778181781185645	-0.8049511054741443	0.0	0.7624884054562642	-0.7547683605934347	0.0	0.932863272103021	-0.41376190481298575	0.0	0.9923338528554708	-0.3586201647356925	0.0	0.9778880013801274	-0.4039979996949347	0.0	0.9037339312163006	-0.4249705717506537	0.0	0.8456776278166753	-0.4895692145039113	0.0	0.8267470305823202	-0.5622132313194103	0.0	0.9298667455533609	-0.42829736826182646	0.0	0.9037593915042101	-0.5047847683960577	0.0	0.9285187776147427	-0.5617152155616041	0.0
59	1.985396825396825	0.8940640670567004	-0.5466923261143449	0.0	0.8871479513231116	-0.5452410576914465	0.0	0.9214445319495667	-0.6524064351254997	0.0	0.8118398069976093	-0.7128594330986615	0.0	0.8078732268970333	-0.7681251324560214	0.0	0.7984997073162343	-0.7611999320815598	0.0	0.7912737666034441	-0.7100004968588027	0.0	0.9060868374222997	-0.5465450387304368	0.0	0.9131650742075909	-0.6541294056258774	0.0	0.8094809661133775	-0.7237606054432852	0.0	0.8057956074583511	-0.7800574667371925	0.0	0.8077443901378535	-0.7757822266821754	0.0	0.7904368858706605	-0.7232623222943259	0.0	0.9490763427249763	-0.37790716144512004	0.0	1.0086654439290528	-0.32164207805973466	0.0	0.9952812141928047	-0.3676501371873531	0.0	0.9194114427430989	-0.3890179361174474	0.0	0.8582084426175294	-0.4512132317644613	0.0	0.8292728084400843	-0.5248735399967022	0.0	0.9456847432041942	-0.3922922773056164	0.0	0.9137673562819575	-0.4699667679563899	0.0	0.9319122299559491	-0.5333491401354545	0.0
60	2.019047619047619	0.9142530242612854	-0.5161506374577488	0.0	0.9066176231752978	-0.5140955842629006	0.0	0.9456614436289099	-0.6236332017761591	0.0	0.8386837310044778	-0.691324771756604	0.0	0.842242680613743	-0.7461256299990346	0.0	0.8314622482900204	-0.7405791931332277	0.0	0.8184150418116516	-0.6899682131647692	0.0	0.9266508222242167	-0.5152385186201163	0.0	0.938534430331587	-0.6249053394859455	0.0	0.8400609921737275	-0.7002636294003131	0.0	0.8444294347371805	-0.754923203376401	0.0	0.8456846197703815	-0.7503266498407534	0.0	0.8220116354107304	-0.7006338548029507	0.0	0.9659348176150573	-0.3460693012308209	0.0	1.0253654747278527	-0.2888704160349942	0.0	1.013257015742919	-0.3353957197138669	0.0	0.9355856403997882	-0.35701436917002105	0.0	0.8721315371238176	-0.41706534051474975	0.0	0.8373272569522575	-0.4905006870105661	0.0	0.962279193697848	-0.36054111465744343	0.0	0.9273650016074464	-0.4376060639984707	0.0	0.9408148160521291	-0.5034887090528752	0.0
61	2.0526984126984122	0.9338717935459376	-0.4899067498887684	0.0	0.9257066607361205	-0.48715738956827537	0.0	0.9677441025532181	-0.5989479997968639	0.0	0.8684207212143632	-0.6774829417383832	0.0	0.8822742159279421	-0.7305257274599365	0.0	0.8696362573368673	-0.7267088956112622	0.0	0.8487062877438919	-0.6786081747057021	0.0	0.9467000993548796	-0.48826770667330865	0.0	0.9622607714522374	-0.5998656616807431	0.0	0.8738213512413054	-0.6843250393694843	0.0	0.8889558166062905	-0.7360915507272952	0.0	0.8890227317374855	-0.7301355870322225	0.0	0.8562684497233368	-0.6865898975031853	0.0	0.9832371863924787	-0.31869892242695225	0.0	1.0424289541504148	-0.26110660830588184	0.0	1.0315517739494935	-0.30782568950637623	0.0	0.9523026351539906	-0.3295294365129037	0.0	0.887276380898674	-0.3879189214704262	0.0	0.8500608169310192	-0.4609261573625236	0.0	0.9791400670730805	-0.33350863551245163	0.0	0.9430946259877857	-0.4093206880718945	0.0	0.9541990021283872	-0.47499442396450575	0.0
62	2.086349206349206	0.9528617020416295	-0.4680459182660678	0.0	0.9445591461709548	-0.46467422114268914	0.0	0.9877732825461792	-0.5784220287999332	0.0	0.9010089035805283	-0.6693861533055963	0.0	0.925985080062686	-0.7190928597040188	0.0	0.911675512718276	-0.7173824511268065	0.0	0.8821199852624854	-0.6739246407039342	0.0	0.9658922484699504	-0.4658063844844095	0.0	0.9840960727530341	-0.5789648636268513	0.0	0.91001780687467	-0.6739680010464768	0.0	0.936258726638405	-0.7219185995750941	0.0	0.934983967615638	-0.7145498052095047	0.0	0.892483035599762	-0.6791514775273386	0.0	1.0008239394863516	-0.2958991636515818	0.0	1.0599214909034311	-0.23853500773452072	0.0	1.0499507437181115	-0.28504180220553077	0.0	0.9695954897391122	-0.3065914149150762	0.0	0.9036103062211877	-0.36395322615172915	0.0	0.8667109803892838	-0.437050322818162	0.0	0.9960416992921759	-0.3111892968711959	0.0	0.9598292574015129	-0.3858175920757261	0.0	0.9703864523120509	-0.45005160421605583	0.0
63	2.1199999999999997	0.9712257930426758	-0.4504819855850844	0.0	0.9631963520913156	-0.4466959712080311	0.0	1.0061267299018783	-0.5619448824771323	0.0	0.9361696622438453	-0.6648862139834737	0.0	0.9714846071012406	-0.7096625869766693	0.0	0.9561231260097889	-0.7103107212437506	0.0	0.9184566758315171	-0.6735056264464936	0.0	0.9840761898487663	-0.447851467866562	0.0	1.0044492279158634	-0.561999884527707	0.0	0.9476672041550345	-0.6669021730451459	0.0	0.9837488758273901	-0.7103028919179182	0.0	0.9812763577131804	-0.7019920995690772	0.0	0.9300502312981053	-0.6756877322548401	0.0	1.018579019365849	-0.27759077889962624	0.0	1.077869017965566	-0.22085357318557494	0.0	1.0682761103475982	-0.26685550126095475	0.0	0.9873917715099068	-0.2879942469756713	0.0	0.9211578953202367	-0.34509883623690774	0.0	0.8866470329050504	-0.4191462971462636	0.0	1.013032776924675	-0.29334865008096617	0.0	0.9769684949185613	-0.36709824658704326	0.0	0.9876803175170834	-0.4299658788747623	0.0
